# AST/ASF file generated using VICON BodyLanguage
# -----------------------------------------------
:version 1.10
:name VICON
:units
  mass 1.0
  length 0.45
  angle deg
:documentation
   .ast/.asf automatically generated from VICON data using
   VICON BodyBuilder and BodyLanguage model FoxedUp or BRILLIANT.MOD
:root
   order TX TY TZ RX RY RZ
   axis XYZ
   position 0 0 0  
   orientation 0 0 0 
:bonedata
  begin
     id 1 
     name lhipjoint
     direction 0.714689 -0.624256 0.315473 
     length 2.45343 
     axis 0 0 0  XYZ
  end
  begin
     id 2 
     name lfemur
     direction 0.34202 -0.939693 0  
     length 6.59069  
     axis 0 0 20  XYZ
    dof rx ry rz
    limits (-160.0 20.0)
           (-70.0 70.0)
           (-60.0 70.0)
  end
  begin
     id 3 
     name ltibia
     direction 0.34202 -0.939693 0   
     length 6.73476   
     axis 0 0 20   XYZ
    dof rx
    limits (-10.0 170.0)
  end
  begin
     id 4 
     name lfoot
     direction 0.0718085 -0.197292 0.977711   
     length 1.52607   
     axis -90 7.62852e-016 20   XYZ
    dof rx rz
    limits (-45.0 90.0)
           (-70.0 20.0)
  end
  begin
     id 5 
     name ltoes
     direction 1.53553e-011 -4.22024e-011 1   
     length 0.777832   
     axis -90 7.62852e-016 20   XYZ
    dof rx
    limits (-90.0 20.0)
  end
  begin
     id 6 
     name rhipjoint
     direction -0.727419 -0.612432 0.309497   
     length 2.50079  
     axis 0 0 0  XYZ 
  end
  begin
     id 7 
     name rfemur
     direction -0.34202 -0.939693 0   
     length 6.51665   
     axis 0 0 -20   XYZ
    dof rx ry rz
    limits (-160.0 20.0)
           (-70.0 70.0)
           (-70.0 60.0)
  end
  begin
     id 8 
     name rtibia
     direction -0.34202 -0.939693 0   
     length 6.48919   
     axis 0 0 -20   XYZ
    dof rx
    limits (-10.0 170.0)
 end
 begin
     id 9 
     name rfoot
     direction -0.112205 -0.308282 0.944655   
     length 1.68717  
     axis -90 -7.62852e-016 -20   XYZ
    dof rx rz
    limits (-45.0 90.0)
           (-20.0 70.0)
  end
  begin
     id 10 
     name rtoes
     direction -1.53583e-011 -4.21993e-011 1   
     length 0.846859   
     axis -90 -7.62852e-016 -20   XYZ
    dof rx
    limits (-90.0 20.0)
  end
  begin
     id 11 
     name lowerback
     direction -0.00119603 0.996364 -0.0851956   
     length 1.67242   
     axis 0 0 0   XYZ
    dof rx ry rz
    limits (-20.0 45.0)
           (-30.0 30.0)
           (-30.0 30.0)
  end
  begin
     id 12 
     name upperback
     direction -0.00531001 0.998318 0.0577248   
     length 1.64819   
     axis 0 0 0   XYZ
    dof rx ry rz
    limits (-20.0 45.0)
           (-30.0 30.0)
           (-30.0 30.0)
  end
  begin
     id 13 
     name thorax
     direction -0.00653676 0.995132 0.0983291   
     length 1.67429   
     axis 0 0 0   XYZ
    dof rx ry rz
    limits (-20.0 45.0)
           (-30.0 30.0)
           (-30.0 30.0)
  end
  begin
     id 14 
     name lowerneck
     direction 0.0141424 0.999886 0.00525412   
     length 1.59623   
     axis 0 0 0   XYZ
    dof rx ry rz
    limits (-20.0 45.0)
           (-30.0 30.0)
           (-30.0 30.0)
  end
  begin
     id 15 
     name upperneck
     direction -0.0640064 0.987178 -0.146232   
     length 1.59576   
     axis 0 0 0   XYZ
    dof rx ry rz
    limits (-20.0 45.0)
           (-30.0 30.0)
           (-30.0 30.0)
  end
  begin
     id 16
     name head
     direction -0.0222942 0.998496 -0.0500859  
     length 1.60959  
     axis 0 0 0   XYZ
    dof rx ry rz
    limits (-20.0 45.0)
           (-30.0 30.0)
           (-30.0 30.0)
  end
  begin
     id 17 
     name lclavicle
     direction 0.908549 0.392612 0.142806  
     length 2.80649  
     axis 0 0 0   XYZ
    dof ry rz
    limits (-20.0 10.0)
           (0.0 20.0)
  end
  begin
     id 18 
     name lhumerus
     direction 1 -4.48968e-011 1.08832e-028   
     length 4.2884   
     axis -180 -30 -90   XYZ
    dof rx ry rz
    limits (-60.0 90.0)
           (-90.0 90.0)
           (-90.0 90.0)
  end
  begin
     id 19
     name lradius
     direction 1 -4.48952e-011 -3.02642e-028   
     length 3.06552   
     axis -180 -30 -90   XYZ
    dof rx
    limits (-10.0 170.0)
  end
  begin
     id 20
     name lwrist
     direction 1 -4.49014e-011 1.58672e-027   
     length 1.53276   
     axis -1.65735e-015 90 90   XYZ
    dof ry
    limits (-180.0 0.0)
 end
  begin
     id 21 
     name lhand
     direction 1 -4.48928e-011 3.17344e-027   
     length 0.753045   
     axis -2.02492e-015 90 90   XYZ
    dof rx rz
    limits (-90.0 90.0)
           (-45.0 45.0)
  end
  begin
     id 22 
     name lfingers
     direction 1 -4.48958e-011 6.34687e-027   
     length 0.607124   
     axis -4.04985e-015 90 90   XYZ
    dof rx
    limits (0.0 90.0)
  end
  begin
     id 23
     name lthumb
     direction 0.707107 -6.34905e-011 0.707107   
     length 0.871712   
     axis -90 45 2.85299e-015   XYZ
    dof rx rz
    limits (-45.0 45.0)
           (-45.0 45.0)
  end
  begin
     id 24 
     name rclavicle
     direction -0.885098 0.45949 0.0739604   
     length 2.9478  
     axis 0 0 0   XYZ 
    dof ry rz
    limits (-10.0 20.0)
           (-20.0 0.0)
  end
  begin
     id 25 
     name rhumerus
     direction -1 -4.4898e-011 -2.61739e-027  
     length 4.52172   
     axis -180 30 90   XYZ
    dof rx ry rz
    limits (-90.0 60.0)
           (-90.0 90.0)
           (-90.0 90.0)
  end
  begin
     id 26 
     name rradius
     direction -1 -4.48945e-011 9.02552e-028   
     length 2.8914   
     axis -180 30 90   XYZ
    dof rx
    limits (-10.0 170.0)
  end
  begin
     id 27 
     name rwrist
     direction -1 -4.49018e-011 1.58672e-027   
     length 1.4457   
     axis -1.65735e-015 -90 -90   XYZ
    dof ry
    limits (-180.0 0.0)
  end
  begin
     id 28
     name rhand
     direction -1 -4.48825e-011 3.17344e-027   
     length 0.680541   
     axis -2.02492e-015 -90 -90   XYZ
    dof rx rz
    limits (-90.0 90.0)
           (-45.0 45.0)
  end
  begin
     id 29
     name rfingers
     direction -1 -4.49067e-011 6.34687e-027   
     length 0.54867   
     axis -4.04985e-015 -90 -90   XYZ
    dof rx
    limits (0.0 90.0)
  end
  begin
     id 30
     name rthumb
     direction -0.707107 -6.34833e-011 0.707107   
     length 0.787783   
     axis -90 -45 -2.85299e-015   XYZ
    dof rx rz
    limits (-45.0 45.0)
           (-45.0 45.0)
  end
:hierarchy
  begin
    root lhipjoint rhipjoint lowerback
    lhipjoint lfemur
    lfemur ltibia
    ltibia lfoot
    lfoot ltoes
    rhipjoint rfemur
    rfemur rtibia
    rtibia rfoot
    rfoot rtoes
    lowerback upperback
    upperback thorax
    thorax lowerneck lclavicle rclavicle
    lowerneck upperneck
    upperneck head
    lclavicle lhumerus
    lhumerus lradius
    lradius lwrist
    lwrist lhand lthumb
    lhand lfingers
    rclavicle rhumerus
    rhumerus rradius
    rradius rwrist
    rwrist rhand rthumb
    rhand rfingers
  end

#!OML:ASF E:\emotionWalksFemale\Project 1\Capture day 1\Session 1\Female1.ASF
:FULLY-SPECIFIED
:DEGREES
691
root 8.26888 15.3384 11.9526 179.236 0.568774 184.732
lowerback 7.97257 1.42658 3.14613
upperback -4.81736 2.38701 -0.186066
thorax -9.47904 0.989171 -2.35352
lowerneck -0.079397 -2.41806 -4.19584
upperneck -1.86367 -3.21844 2.80112
head -0.445384 -1.6063 1.58257
rclavicle 2.38542e-015 6.36111e-015
rhumerus -31.5208 12.5595 -86.7863
rradius 35.4358
rwrist 17.8988
rhand -2.24083 -53.7603
rfingers 7.12502
rthumb 23.4424 -82.3523
lclavicle 2.38542e-015 6.36111e-015
lhumerus -50.3067 8.08609 74.5774
lradius 37.665
lwrist -12.4718
lhand -4.14557 -33.6552
lfingers 7.12502
lthumb 21.6142 -4.84152
rfemur 6.42586 13.5623 38.0396
rtibia 13.4654
rfoot -11.9495 -30.9558
rtoes 17.839
lfemur -29.7003 -1.79269 -15.7579
ltibia 43.3979
lfoot -17.2079 13.4876
ltoes -24.4721
692
root 8.26336 15.3403 11.8253 179.138 0.972326 184.793
lowerback 7.37313 1.57845 3.21262
upperback -4.40892 2.55451 -0.116466
thorax -8.66797 1.08605 -2.30661
lowerneck -0.166239 -2.45947 -4.20976
upperneck -2.20369 -3.27435 2.75595
head -0.534772 -1.63439 1.57312
rclavicle 3.57812e-014 1.59028e-015
rhumerus -30.4796 12.9367 -86.8092
rradius 35.7216
rwrist 17.7439
rhand -2.52983 -53.7554
rfingers 7.12502
rthumb 23.1651 -82.3825
lclavicle 3.57812e-014 1.59028e-015
lhumerus -49.9959 8.41144 74.6303
lradius 37.6158
lwrist -12.4999
lhand -3.76115 -32.9593
lfingers 7.12502
lthumb 21.9833 -4.18856
rfemur 7.79763 13.4699 38.1729
rtibia 12.0098
rfoot -11.3448 -30.6751
rtoes 17.5236
lfemur -29.6362 -2.41245 -15.5289
ltibia 41.3607
lfoot -17.1606 13.9061
ltoes -23.942
693
root 8.25687 15.3455 11.7003 179.113 1.37194 184.814
lowerback 7.33586 1.67548 3.30293
upperback -4.38411 2.69312 -0.10008
thorax -8.60783 1.15021 -2.35716
lowerneck -0.212039 -2.48009 -4.22172
upperneck -2.19706 -3.30016 2.78296
head -0.523438 -1.64737 1.58298
rclavicle -2.98177e-015 1.82882e-014
rhumerus -30.0031 13.426 -87.0322
rradius 35.9919
rwrist 17.7116
rhand -3.19254 -53.1664
rfingers 7.12502
rthumb 22.5292 -81.872
lclavicle -2.98177e-015 1.82882e-014
lhumerus -50.3224 8.40133 74.6959
lradius 37.8334
lwrist -12.1981
lhand -3.41278 -32.2154
lfingers 7.12502
lthumb 22.3178 -3.48429
rfemur 9.08344 13.3889 38.2328
rtibia 10.62
rfoot -10.9315 -30.2823
rtoes 17.9561
lfemur -29.6436 -3.12904 -15.2956
ltibia 39.3614
lfoot -16.9286 14.6291
ltoes -24.5876
694
root 8.25336 15.3492 11.5814 179.176 1.62672 184.75
lowerback 7.27544 1.76173 3.28158
upperback -4.37895 2.80365 -0.105536
thorax -8.56046 1.20649 -2.3637
lowerneck -0.234028 -2.54827 -4.35046
upperneck -2.19354 -3.38903 2.90961
head -0.51135 -1.69175 1.64565
rclavicle -6.11263e-015 1.59028e-015
rhumerus -29.5731 13.898 -87.1796
rradius 36.3455
rwrist 17.6773
rhand -3.02144 -53.0452
rfingers 7.12502
rthumb 22.6934 -81.7308
lclavicle -6.11263e-015 1.59028e-015
lhumerus -50.5119 8.3844 74.8121
lradius 37.9768
lwrist -12.2248
lhand -3.10926 -31.8442
lfingers 7.12502
lthumb 22.6091 -3.14828
rfemur 10.4726 13.2543 38.1967
rtibia 8.77948
rfoot -10.3703 -29.8142
rtoes 18.5079
lfemur -29.7544 -4.1785 -15.0431
ltibia 37.4044
lfoot -16.967 15.4231
ltoes -23.1217
695
root 8.25316 15.3486 11.4681 179.269 1.78053 184.795
lowerback 7.3437 1.84969 3.35995
upperback -4.48652 2.93549 -0.17013
thorax -8.70282 1.26107 -2.50085
lowerneck -0.120573 -2.60392 -4.37998
upperneck -2.1061 -3.46344 3.11994
head -0.496527 -1.7304 1.71929
rclavicle -3.1408e-014 5.56597e-015
rhumerus -29.2746 13.8551 -87.427
rradius 36.6214
rwrist 17.6559
rhand -2.71562 -52.7825
rfingers 7.12502
rthumb 22.9869 -81.4319
lclavicle -3.1408e-014 5.56597e-015
lhumerus -50.6825 8.08003 74.7854
lradius 37.8615
lwrist -12.4112
lhand -3.07638 -31.8633
lfingers 7.12502
lthumb 22.6407 -3.17122
rfemur 11.9013 13.0222 38.2803
rtibia 6.6577
rfoot -9.27481 -29.5035
rtoes 18.2335
lfemur -29.918 -5.35662 -14.5855
ltibia 35.5508
lfoot -17.4319 16.149
ltoes -20.7251
696
root 8.25332 15.3452 11.3541 179.383 1.97729 184.995
lowerback 7.41348 1.89992 3.54611
upperback -4.60872 3.03861 -0.15196
thorax -8.86345 1.29793 -2.60772
lowerneck -0.0475543 -2.60964 -4.44668
upperneck -1.9931 -3.47083 3.32116
head -0.468976 -1.73516 1.79585
rclavicle 2.78299e-015 -7.95139e-016
rhumerus -28.9662 13.993 -87.7048
rradius 36.8751
rwrist 17.4876
rhand -2.69789 -52.4143
rfingers 7.12502
rthumb 23.0039 -81.0616
lclavicle 2.78299e-015 -7.95139e-016
lhumerus -50.9791 7.86656 74.7029
lradius 37.652
lwrist -12.4666
lhand -3.52277 -32.6995
lfingers 7.12502
lthumb 22.2122 -3.95577
rfemur 13.6498 12.8284 38.5354
rtibia 3.81247
rfoot -7.51332 -29.2556
rtoes 17.4934
lfemur -30.1029 -6.61132 -13.8739
ltibia 33.8212
lfoot -18.0652 16.9783
ltoes -18.6573
697
root 8.25104 15.3404 11.2358 179.497 2.25346 185.126
lowerback 7.25613 1.94605 3.61264
upperback -4.5697 3.11096 -0.0337101
thorax -8.72696 1.33814 -2.52105
lowerneck -0.161265 -2.6399 -4.63856
upperneck -2.00773 -3.5071 3.40568
head -0.448184 -1.75218 1.85527
rclavicle -8.54774e-015 3.18055e-015
rhumerus -28.4731 14.665 -87.8223
rradius 37.2529
rwrist 17.0318
rhand -2.89851 -52.2975
rfingers 7.12502
rthumb 22.8114 -80.9687
lclavicle -8.54774e-015 3.18055e-015
lhumerus -51.0905 8.08152 74.7474
lradius 37.5161
lwrist -12.4304
lhand -3.81413 -33.7428
lfingers 7.12502
lthumb 21.9324 -4.96603
rfemur 15.9323 12.7114 38.7011
rtibia -2.22639e-014
rfoot -5.38308 -28.8028
rtoes 17.0241
lfemur -30.2538 -8.14726 -13.105
ltibia 32.2153
lfoot -18.8547 18.2464
ltoes -16.6559
698
root 8.24294 15.3367 11.1157 179.523 2.55584 185.124
lowerback 7.06101 2.0517 3.66532
upperback -4.46419 3.24278 -0.0318972
thorax -8.48602 1.40568 -2.55348
lowerneck -0.229455 -2.74236 -4.68574
upperneck -2.09434 -3.64195 3.4236
head -0.456783 -1.81949 1.86897
rclavicle -3.926e-015 -1.66979e-014
rhumerus -27.9217 15.0346 -87.9415
rradius 37.5038
rwrist 16.7529
rhand -2.96195 -52.3455
rfingers 7.12502
rthumb 22.7505 -81.0241
lclavicle -3.926e-015 -1.66979e-014
lhumerus -50.965 8.34182 74.7002
lradius 37.3076
lwrist -12.5467
lhand -3.67136 -34.3411
lfingers 7.12502
lthumb 22.0695 -5.58051
rfemur 16.4235 12.607 38.713
rtibia 2.22639e-014
rfoot -5.24668 -28.8106
rtoes 16.1797
lfemur -30.28 -10.0895 -12.3635
ltibia 30.699
lfoot -19.8396 20.0337
ltoes -15.8421
699
root 8.23351 15.3378 10.9999 179.631 2.84661 185.115
lowerback 6.92251 2.16399 3.76252
upperback -4.46088 3.39214 -0.105224
thorax -8.38167 1.47379 -2.69791
lowerneck -0.207861 -2.83865 -4.74579
upperneck -2.09646 -3.76933 3.63767
head -0.450591 -1.8847 1.94919
rclavicle -2.79292e-014 2.38542e-015
rhumerus -27.484 15.1582 -88.169
rradius 37.6807
rwrist 16.6998
rhand -2.47958 -52.4792
rfingers 7.12502
rthumb 23.2133 -81.1002
lclavicle -2.79292e-014 2.38542e-015
lhumerus -50.935 8.33422 74.6074
lradius 37.1686
lwrist -12.8757
lhand -3.3031 -33.9492
lfingers 7.12502
lthumb 22.423 -5.23073
rfemur 16.7759 12.5197 38.6916
rtibia 4.92986e-014
rfoot -4.89218 -28.7432
rtoes 14.9483
lfemur -30.4703 -12.2911 -11.4595
ltibia 29.3173
lfoot -21.1984 21.8343
ltoes -13.152
700
root 8.23187 15.3391 10.8977 180.009 2.93779 185.105
lowerback 6.82621 2.19842 3.69465
upperback -4.62862 3.44068 -0.132147
thorax -8.50629 1.49974 -2.69602
lowerneck -0.0272226 -2.87424 -4.92911
upperneck -2.23994 -3.82006 4.02101
head -0.513522 -1.9134 2.11237
rclavicle 4.77083e-015 -7.95139e-015
rhumerus -27.1165 15.2493 -88.3844
rradius 37.7781
rwrist 16.7099
rhand -2.05919 -52.3209
rfingers 7.12502
rthumb 23.6166 -80.8905
lclavicle 4.77083e-015 -7.95139e-015
lhumerus -51.0104 8.16881 74.6884
lradius 37.0999
lwrist -13.022
lhand -3.26865 -33.4011
lfingers 7.12502
lthumb 22.4561 -4.68664
rfemur 16.7649 12.3235 38.624
rtibia -1.43125e-014
rfoot -4.66675 -28.5541
rtoes 14.2483
lfemur -31.0973 -14.5525 -10.347
ltibia 28.0555
lfoot -23.1036 23.1311
ltoes -6.60175
701
root 8.22241 15.3385 10.7717 179.957 3.39253 185.136
lowerback 6.78352 2.35902 3.76463
upperback -4.58219 3.6583 -0.125177
thorax -8.41204 1.60436 -2.75203
lowerneck 0.134611 -2.88601 -5.04809
upperneck -2.46846 -3.83985 4.2216
head -0.606207 -1.92604 2.20612
rclavicle 3.94588e-014 4.77083e-015
rhumerus -26.6993 15.3326 -88.5387
rradius 37.6903
rwrist 16.7097
rhand -2.54454 -51.8264
rfingers 7.12502
rthumb 23.151 -80.4552
lclavicle 3.94588e-014 4.77083e-015
lhumerus -51.069 8.03071 74.8075
lradius 37.0539
lwrist -13.0422
lhand -3.36384 -33.27
lfingers 7.12502
lthumb 22.3647 -4.54454
rfemur 17.3672 12.3412 38.677
rtibia -6.52014e-014
rfoot -4.72477 -28.4058
rtoes 14.3374
lfemur -31.0697 -17.0314 -9.19835
ltibia 26.943
lfoot -25.4335 24.7938
ltoes -1.09597
